# xmcd
#
# Track frame offsets:
#	150
#	38843
#	75119
#	125544
#
# Disc length: 2842 seconds
#
# Revision: 11
# Processed by: cddbd v1.5.2PL0 Copyright (c) Steve Scherf et al.
# Submitted via: Jack! The Knife 20 Magnifico
#
DISCID=220b1804
DTITLE=Lou Reed and Metallica - Lulu [CD 2)
DYEAR=2011
DGENRE=Heavy Metal
TTITLE0=Frustration
TTITLE1=Little Dog
TTITLE2=Dragon
TTITLE3=Junior Dad
EXTD=Lou Reed, Metallica, Hal Willner and Greg Fidelman
EXTT0=Lou Reed, Metallica
EXTT1=Lou Reed, Metallica
EXTT2=Lou Reed, Metallica
EXTT3=Lou Reed, Metallica
PLAYORDER=
